<svg width="130" height="34" viewBox="0 0 130 34" fill="none" xmlns="http://www.w3.org/2000/svg">
<path d="M1.49939 34V0.167535H10.6688C13.1293 0.167535 14.917 0.769855 16.032 1.9745C17.1597 3.16632 17.7236 5.13988 17.7236 7.89518V9.37535C17.7236 10.9644 17.4353 12.2524 16.8586 13.2392C16.2947 14.2259 15.4297 14.8731 14.2635 15.1807C15.7885 15.5652 16.8073 16.4686 17.3199 17.8911C17.8453 19.3008 18.1081 21.0245 18.1081 23.0621C18.1081 25.2535 17.903 27.1694 17.4929 28.8098C17.0828 30.4502 16.3395 31.7253 15.2631 32.6352C14.1866 33.5451 12.6551 34 10.6688 34H1.49939ZM8.1121 12.9124H9.49616C10.1241 12.9124 10.5278 12.6689 10.7072 12.1819C10.8866 11.6949 10.9763 11.1118 10.9763 10.4326V7.03014C10.9763 5.94084 10.4958 5.39619 9.5346 5.39619H8.1121V12.9124ZM8.78491 28.0409C10.5406 28.0409 11.4185 27.2079 11.4185 25.5419V21.3128C11.4185 20.3517 11.2711 19.5956 10.9763 19.0445C10.6944 18.4806 10.1561 18.1987 9.3616 18.1987H8.1121V28.0024C8.39404 28.0281 8.61831 28.0409 8.78491 28.0409ZM20.3379 34V0.167535H33.8709V6.70335H27.2198V13.2968H33.6018V19.6596H27.2198V27.4065H34.313V34H20.3379ZM39.2149 34L35.5818 0.167535H42.1945L44.0591 21.5243L45.9622 0.167535H52.2673L54.0743 21.5243L55.8812 0.167535H62.5708L58.88 34H50.7679L49.0763 17.7181L47.4616 34H39.2149ZM64.5893 34V0.167535H78.1222V6.70335H71.4711V13.2968H77.8531V19.6596H71.4711V27.4065H78.5644V34H64.5893ZM79.8908 34L83.1587 0.167535H94.6348L97.845 34H91.4438L90.9632 28.5407H86.8879L86.465 34H79.8908ZM87.3685 23.139H90.4442L88.964 5.93443H88.6564L87.3685 23.139ZM99.9211 34V0.167535H110.302C112.032 0.167535 113.339 0.56481 114.223 1.35936C115.107 2.1411 115.697 3.24321 115.992 4.66571C116.299 6.0754 116.453 7.73499 116.453 9.64447C116.453 11.4899 116.216 12.9636 115.742 14.0658C115.28 15.1679 114.402 15.9304 113.108 16.3533C114.172 16.5712 114.915 17.103 115.338 17.9488C115.774 18.7818 115.992 19.8647 115.992 21.1975V34H109.321V20.7554C109.321 19.7686 109.116 19.1599 108.706 18.9292C108.309 18.6857 107.662 18.5639 106.764 18.5639V34H99.9211ZM106.803 12.7009H108.437C109.372 12.7009 109.84 11.6821 109.84 9.64447C109.84 8.32449 109.738 7.45946 109.533 7.04937C109.328 6.63928 108.943 6.43423 108.379 6.43423H106.803V12.7009Z" fill="white"/>
<path d="M124.62 0C125.576 0 126.431 0.211765 127.184 0.635294C127.953 1.05882 128.549 1.6549 128.973 2.42353C129.396 3.17647 129.608 4.03922 129.608 5.01176C129.608 5.96863 129.396 6.82353 128.973 7.57647C128.549 8.32941 127.953 8.92549 127.184 9.3647C126.431 9.78823 125.576 10 124.62 10C123.663 10 122.8 9.78823 122.031 9.3647C121.278 8.92549 120.682 8.32941 120.243 7.57647C119.82 6.82353 119.608 5.96863 119.608 5.01176C119.608 4.03922 119.82 3.17647 120.243 2.42353C120.682 1.6549 121.278 1.05882 122.031 0.635294C122.8 0.211765 123.663 0 124.62 0ZM124.62 8.8C125.749 8.8 126.651 8.4549 127.325 7.76471C128.016 7.05882 128.361 6.14118 128.361 5.01176C128.361 3.86667 128.016 2.94902 127.325 2.25882C126.651 1.55294 125.749 1.2 124.62 1.2C123.49 1.2 122.588 1.55294 121.914 2.25882C121.239 2.94902 120.902 3.86667 120.902 5.01176C120.902 6.15686 121.239 7.07451 121.914 7.76471C122.588 8.4549 123.49 8.8 124.62 8.8ZM126.831 4.07059C126.831 4.41569 126.745 4.71373 126.573 4.96471C126.416 5.21569 126.188 5.40392 125.89 5.52941L127.114 7.45882H125.278L124.267 5.69412H124.125V7.45882H122.549V2.42353H125.02C125.569 2.42353 126.008 2.58039 126.337 2.89412C126.667 3.19216 126.831 3.58431 126.831 4.07059ZM124.102 4.51765H124.855C124.965 4.51765 125.059 4.48627 125.137 4.42353C125.216 4.36078 125.255 4.26667 125.255 4.14118C125.255 3.90588 125.122 3.78823 124.855 3.78823H124.102V4.51765Z" fill="white"/>
</svg>
